<svg id="레이어_1" data-name="레이어 1" xmlns="http://www.w3.org/2000/svg" viewBox="0 0 64 32"><title>Logo</title><path d="M21.34,8.22a.21.21,0,0,1-.09.24v0a.2.2,0,0,1-.09.09.19.19,0,0,1-.1.05l-1.26,1-.84.66a.36.36,0,0,1-.33.05.24.24,0,0,1-.18-.26.42.42,0,0,0-.2-.32,1.73,1.73,0,0,0-.38-.24l-.13-.09c-.29-.18-.59-.35-.88-.51-.55-.31-1.11-.59-1.68-.85a9.27,9.27,0,0,0-1.79-.63,3.57,3.57,0,0,0-1.89,0,3.1,3.1,0,0,0-1.7,1.29,3.4,3.4,0,0,0-.52,2,3.22,3.22,0,0,0,.84,2,.27.27,0,0,1,.06.29.32.32,0,0,1-.21.2.26.26,0,0,1-.28-.07,4.08,4.08,0,0,1-.92-1.71.42.42,0,0,1-.25,0,.25.25,0,0,1-.1-.24,8.17,8.17,0,0,0,0-1,5.23,5.23,0,0,1,.08-1.53,3.57,3.57,0,0,1,.9-1.55A5.6,5.6,0,0,1,11.21,5.9a13.17,13.17,0,0,1,2.06-.63A8.55,8.55,0,0,1,15.45,5a5.64,5.64,0,0,1,2.12.45,8.83,8.83,0,0,1,1.79,1.09c.54.44,1.07.9,1.57,1.39a.36.36,0,0,1,.27,0l.08.08a.21.21,0,0,1,0,.1A.31.31,0,0,1,21.34,8.22Zm9.85,13.05a.38.38,0,0,1,.21.2.25.25,0,0,1-.09.27l-1.07.87-2.35,1.91a.45.45,0,0,1-.22.08.25.25,0,0,1-.21-.08,9.75,9.75,0,0,0-.91-1,4.89,4.89,0,0,0-1.1-.81,3.05,3.05,0,0,0-1.32-.35,2,2,0,0,0-.66.1.54.54,0,0,0-.41.44.36.36,0,0,1-.18.26.33.33,0,0,1-.29,0,.26.26,0,0,1-.14-.26,3,3,0,0,1,1.41-2.36,5.49,5.49,0,0,0-.61-1.24c-.26-.4-.54-.78-.82-1.15l-.38-.49-.28,0-.32,0-.17,0c-.32,0-.64,0-1,.08a19.54,19.54,0,0,0-2,.32c-.37.84-.76,1.67-1.16,2.5l1.42.19,0,0s0,0,0,0a.09.09,0,0,1,.12,0,.18.18,0,0,1,.09.12l.68.08h0a.25.25,0,0,1,.21.21.37.37,0,0,1-.08.3l-.88,1-1.12,1.26a.21.21,0,0,1-.07.12l-.19.18a.27.27,0,0,1-.3.07.33.33,0,0,1-.2-.2.3.3,0,0,1,.07-.29h0a.34.34,0,0,1-.19-.08,4.72,4.72,0,0,0-1.68-.83,6.24,6.24,0,0,0-1.88-.2,9.42,9.42,0,0,0-2.05.32,4.66,4.66,0,0,0-.82.28l-.19.1a1.34,1.34,0,0,0-.26.14,1.15,1.15,0,0,0-.2.15.23.23,0,0,1,0,.18.33.33,0,0,1-.11.15,2,2,0,0,0,0,.48,2,2,0,0,0,.51,1.11,1.91,1.91,0,0,0,1,.61.26.26,0,0,1,.21.2.37.37,0,0,1-.08.28.24.24,0,0,1-.28.09,2.42,2.42,0,0,1-1.25-.69,2.71,2.71,0,0,1-.69-1.25,2.87,2.87,0,0,1,0-1.13.79.79,0,0,1,0-.13,3.45,3.45,0,0,1,.74-1.48,4.09,4.09,0,0,1,2-1.3,7.16,7.16,0,0,1,2.36-.3,18.09,18.09,0,0,1,2.38.24,82.06,82.06,0,0,0,4.34-10.7.3.3,0,0,1,0-.21.31.31,0,0,1,.19-.16,3,3,0,0,0,1.58-1.06.36.36,0,0,1,.3-.14.3.3,0,0,1,.25.21,5.85,5.85,0,0,0,.68,1.25c.13.18.24.37.35.55.31.54.61,1.09.89,1.64.6,1.16,1.16,2.33,1.68,3.52.1.22.2.44.29.66.43,1,.88,1.94,1.34,2.89l0,.12c.25.51.5,1,.78,1.53a1.26,1.26,0,0,0,.65.61,2.24,2.24,0,0,0,.89.12h.09A.26.26,0,0,1,31.19,21.27ZM9.09,8.7a3.91,3.91,0,0,1,.62-.83.23.23,0,0,1-.07-.07.16.16,0,0,1,0-.1A2.78,2.78,0,0,0,9.09,8.7Zm1.36-1.47a3.72,3.72,0,0,1,.33-.45l-.14.08a2.85,2.85,0,0,0-.69.78,3.36,3.36,0,0,1,.49-.35A.13.13,0,0,1,10.45,7.23Zm-.36,15.29a1.23,1.23,0,0,1,.31-.14.15.15,0,0,1,0-.18l.19-.22.2-.24-.16.14A3,3,0,0,0,10.09,22.52Zm1.24-.43a7.28,7.28,0,0,1,.64-1,2.57,2.57,0,0,0-.45.2l-.43.49-.42.49ZM11.4,6.85a5,5,0,0,1,.53-.59l-.47.19a3.26,3.26,0,0,0-.57.6,2.33,2.33,0,0,1,.33-.14ZM11.66,22l.68-.1a3.47,3.47,0,0,1,.68-1,3.76,3.76,0,0,0-.6.1A6.45,6.45,0,0,0,11.66,22Zm.59-15.31A9.4,9.4,0,0,1,12.91,6l-.33.09a5.12,5.12,0,0,0-.77.69A3.42,3.42,0,0,1,12.25,6.71Zm.33,0,.39,0a5.08,5.08,0,0,1,.92-1l-.3,0-.16,0h0A7.48,7.48,0,0,0,12.58,6.71Zm.68,15.1a4.93,4.93,0,0,1,.62-1h-.47a3.47,3.47,0,0,0-.78,1c.21,0,.42,0,.62,0A0,0,0,0,0,13.26,21.81Zm0-15,.4.08a5.79,5.79,0,0,1,1.17-1.25l-.42,0-.05,0A4.7,4.7,0,0,0,13.26,6.79Zm.28,15.05h.26a10.13,10.13,0,0,1,.72-1h-.3A4.37,4.37,0,0,0,13.54,21.84Zm.38-14.9.38.13a15.44,15.44,0,0,1,1.19-1.46h-.28a.21.21,0,0,1-.06.08A5.61,5.61,0,0,0,13.92,6.94Zm.69,15h0l.65-.84.11-.15-.56-.06a8.81,8.81,0,0,0-.73,1C14.27,21.88,14.44,21.89,14.61,21.92Zm0-14.77.31.13c.43-.54.87-1.07,1.31-1.6l-.36,0A15.16,15.16,0,0,0,14.56,7.15Zm.87,15h0v0A5.46,5.46,0,0,1,16.18,21l-.5-.07c-.15.18-.3.37-.44.56l-.35.44A4.26,4.26,0,0,1,15.43,22.11Zm-.3-14.73.24.11.07,0A13.69,13.69,0,0,1,16.75,5.8l-.29-.07c-.22.28-.44.55-.67.82S15.34,7.1,15.13,7.38Zm.55.24.24.12.08,0c.45-.61.91-1.19,1.39-1.75L17,5.89A12.32,12.32,0,0,0,15.68,7.62Zm.37,14.71h0l.87-1.14-.2,0a.37.37,0,0,1-.14-.07h0l-.05,0h-.05l0,0a4.69,4.69,0,0,0-.76,1.08Zm.73-14.16.41.24a14.78,14.78,0,0,1,1.26-1.76,5.45,5.45,0,0,0-.81-.49h0v0c-.48.57-.94,1.16-1.38,1.76l.3.15,1.27-1.66a.13.13,0,0,1,.12,0,.14.14,0,0,1,.1.07.11.11,0,0,1,0,.11l-.63.83Zm.44,13-.49.65-.44.59a3.77,3.77,0,0,1,.67.39l1.18-1.5-.3,0s0,0,0,.07a2.57,2.57,0,0,0-.93,1.17.13.13,0,0,1-.1.08.15.15,0,0,1-.13,0,.09.09,0,0,1,0-.12,2.84,2.84,0,0,1,.89-1.21Zm1.64.23-.43-.06L17.16,23h0s0,0,0,0a.38.38,0,0,1,.1.13l.54-.61ZM17.67,8.68c.37-.59.77-1.17,1.19-1.74l-.2-.15a16.8,16.8,0,0,0-1.25,1.75l.19.1Zm.54.31a13.29,13.29,0,0,1,1.15-1.66l-.3-.24c-.41.57-.81,1.14-1.18,1.73L18,8.9Zm.21.14a1.55,1.55,0,0,1,.24.19A15.07,15.07,0,0,1,20,7.87l-.42-.38A18.25,18.25,0,0,0,18.42,9.13Zm.19,8.31.45-.08a4.17,4.17,0,0,1,.59-.74,1.64,1.64,0,0,0-.35.08.31.31,0,0,1-.19.18.34.34,0,0,1-.26,0c-.05.14-.11.28-.17.42A1,1,0,0,0,18.61,17.44Zm.28-7.89c.53-.4,1.06-.81,1.58-1.23l-.28-.25,0,0a13.84,13.84,0,0,0-1.3,1.46Zm1.41,3.7c-.35,1-.73,1.91-1.12,2.87a3.26,3.26,0,0,1,.61-.11H20a10.66,10.66,0,0,1,1.38-.09c-.13-.35-.27-.69-.4-1L20.63,14a2.63,2.63,0,0,0-.15-.35Zm-.63,4a.06.06,0,0,1,0-.06c.11-.15.23-.29.34-.43l.1-.15a.12.12,0,0,1,.11,0s0,0,0,0a0,0,0,0,1,0,0H20.2l-.19,0h-.13a.11.11,0,0,1,0,.08.13.13,0,0,1,0,.07,4.79,4.79,0,0,0-.46.55l.17,0Zm.34-.05a1.55,1.55,0,0,1,.31,0l.06,0,.23-.32.23-.34H20.6l-.19.26a.14.14,0,0,1-.11.06l-.15.18ZM21.43,10q-.39,1.2-.81,2.37h0a20.57,20.57,0,0,1,2-3.16.14.14,0,0,1,.13-.05.14.14,0,0,1,.1.07s0,.07,0,.12a21,21,0,0,0-2.05,3.25.27.27,0,0,1,0,.19,1.5,1.5,0,0,0,.11.34l.23-.42c.27-.58.56-1.14.87-1.69a8.75,8.75,0,0,1,1.09-1.54,4.09,4.09,0,0,1-.25-.46,3.8,3.8,0,0,1-1.34.86A.41.41,0,0,1,21.43,10Zm-.22,7a4.4,4.4,0,0,1,.29-.51h-.33l-.46.65.49,0A.08.08,0,0,1,21.21,17Zm2-7.28a9.69,9.69,0,0,0-1,1.49c-.3.54-.58,1.08-.84,1.63l-.31.62.05.09a1.8,1.8,0,0,0,.08.21c0,.07,0,.14.08.2a14.25,14.25,0,0,0,.92-1.78l.1-.22.21-.49c.11-.28.23-.54.36-.81a2.42,2.42,0,0,1,.51-.66s0,0,0,0l-.05-.07A1.74,1.74,0,0,0,23.23,9.73Zm.3.47a2.15,2.15,0,0,0-.55.85.77.77,0,0,0-.07.16l-.26.56-.22.48a.31.31,0,0,0-.06.13,13.77,13.77,0,0,1-1,1.9v.06a3.62,3.62,0,0,1,.13.35.35.35,0,0,1,.06.14l1.62-2.78.57-1a.13.13,0,0,1,.11-.07.2.2,0,0,1,.11.06.14.14,0,0,1,0,.14l-2.3,3.93c.05.14.11.29.18.44.68-1.24,1.37-2.47,2.07-3.71a.14.14,0,0,1,.1-.06,1.51,1.51,0,0,1,.24-.26c-.2-.39-.42-.77-.65-1.15l-.09-.14ZM22,17.07l.35-.54-.49,0a4.67,4.67,0,0,0-.38.6H22Zm2.73-4.77-.27-.53a1.15,1.15,0,0,0-.28.42.16.16,0,0,1-.13.1c-.34.59-.67,1.19-1,1.79s-.67,1.2-1,1.79a.09.09,0,0,1,0,.05l.41,0a.28.28,0,0,1,.22.11l.93-1.48q.42-.66.81-1.35a.87.87,0,0,0,.09-.17,2.69,2.69,0,0,1,.16-.29.58.58,0,0,1,.2-.21l0-.07Zm-2,5.15a0,0,0,0,1,0,0h0c.43-.82.87-1.63,1.33-2.44.24-.42.49-.84.74-1.26a.54.54,0,0,1,.05-.11,1.26,1.26,0,0,1,.13-.23.29.29,0,0,1,.2-.11.13.13,0,0,1,.1,0l-.05-.09c-.07-.15-.14-.31-.22-.47a.12.12,0,0,1-.08,0,.7.7,0,0,0-.12.18,2.12,2.12,0,0,0-.11.21.33.33,0,0,1-.06.12c-.11.2-.22.39-.34.58-.22.37-.45.75-.69,1.12-.42.68-.85,1.35-1.3,2a.49.49,0,0,1,.32.16A.35.35,0,0,1,22.66,17.45Zm.2.26s0,.05.06.08l.19.25a21.82,21.82,0,0,1,2.42-4c-.08-.19-.17-.37-.27-.56v0a.24.24,0,0,1,0,.09.1.1,0,0,1-.07,0h-.06l-.11.18-.1.2-.06.12-.29.49-.57,1c-.38.69-.75,1.38-1.11,2.09Zm1,1.37,1.35-2.14.91-1.46s.05-.05.09-.05l-.52-1.13a21.31,21.31,0,0,0-2.38,4,3.15,3.15,0,0,0,.19.27q1-1.89,2.16-3.69a.1.1,0,0,1,.11-.06.11.11,0,0,1,.11.06.1.1,0,0,1,0,.13q-1.19,1.85-2.22,3.8C23.7,18.88,23.77,19,23.83,19.08Zm0,2.69.69-.91,0,0a2.44,2.44,0,0,0-1.07,1A2.07,2.07,0,0,1,23.8,21.77Zm2.6-5.84-.12-.27-1.42,2.27L24,19.33c.07.12.13.25.19.38A42.1,42.1,0,0,1,26.4,15.93ZM26.91,23l.33.33A22.52,22.52,0,0,1,28.8,21a5.56,5.56,0,0,1-.39-.77l-.15-.31c-.39-.79-.76-1.58-1.12-2.38-.95,1.44-1.95,2.83-3,4.19a3.43,3.43,0,0,1,.56.05l2.62-3.36s.07-.06.12,0a.11.11,0,0,1,.08.08.12.12,0,0,1,0,.13l-1.25,1.63L25,21.86a2.69,2.69,0,0,1,.56.21,16.67,16.67,0,0,1,2.11-2.95.13.13,0,0,1,.13,0,.14.14,0,0,1,.08.09.11.11,0,0,1,0,.12,15.89,15.89,0,0,0-2.06,2.9l.4.24a18.35,18.35,0,0,1,1.66-2.56.11.11,0,0,1,.12-.06.24.24,0,0,1,.11.06s0,.08,0,.13a21.31,21.31,0,0,0-1.67,2.57l.35.3a0,0,0,0,0,0,0,17,17,0,0,1,1.58-2.36.09.09,0,0,1,.11,0,.11.11,0,0,1,.09.08.12.12,0,0,1,0,.13A19.85,19.85,0,0,0,27,23S26.94,23,26.91,23Zm.12-5.7c-.17-.36-.34-.73-.5-1.11A40.07,40.07,0,0,0,24.31,20l.1.28c.18-.34.37-.68.58-1,.08-.11.15-.23.22-.35.43-.69.85-1.39,1.27-2.07a.13.13,0,0,1,.12-.07.14.14,0,0,1,.1.07.1.1,0,0,1,0,.13l-.44.72c-.24.4-.49.8-.74,1.2l-.26.43a10.84,10.84,0,0,0-.69,1.17.28.28,0,0,1,0,.2c.82-1.09,1.61-2.2,2.36-3.34A.16.16,0,0,1,27,17.32Zm.39,6.23.26.29c.53-.76,1.07-1.51,1.61-2.26h0a.1.1,0,0,0-.05,0,1.5,1.5,0,0,1-.27-.29A18.93,18.93,0,0,0,27.42,23.55Zm.88-.13,1.88-1.54a2.14,2.14,0,0,1-.66-.17c-.21.28-.41.56-.61.85S28.5,23.13,28.3,23.42Z"/><path d="M32.53,23.92a2.79,2.79,0,0,1-.24-.74,2.25,2.25,0,0,1,.07-1.09,1.62,1.62,0,0,1,.34-.56c.14-.13.27-.26.41-.37s.45-.35.68-.51a20.2,20.2,0,0,1,1.77-1.11l.21-.13s0,0,0-.05,0,0,0-.06l-.09-.08-.09-.1a4.17,4.17,0,0,1-.82-1.61,4.05,4.05,0,0,1,.2-2.68,4.54,4.54,0,0,1,1.33-1.78,3.75,3.75,0,0,1,.33-.26,7.5,7.5,0,0,1,2.31-1,5.06,5.06,0,0,1,1.77-.14,4.08,4.08,0,0,1,1.41.36,1.25,1.25,0,0,0,.4.12h.21a.49.49,0,0,0,.36-.24l0-.07a.58.58,0,0,1,1,.24.65.65,0,0,1,0,.39A2.09,2.09,0,0,1,43,13.73l0,0-.08,0s0,0,0,0v0a1.48,1.48,0,0,0,0,.21c.05.21.09.43.14.65l.05.26a.11.11,0,0,1,0,.05l0,.1a.79.79,0,0,1,0,.48.15.15,0,0,0,0,.14.19.19,0,0,0,.06.07l.1.12a5,5,0,0,1,.66.9,4,4,0,0,1,.24.51,0,0,0,0,0,0,0l0,0a.17.17,0,0,1,.13,0,.13.13,0,0,1,.09.09.13.13,0,0,1,0,.14l-.08.07-.05,0c0,.1.05.2.07.3A3.29,3.29,0,0,1,44.13,20a3.84,3.84,0,0,1-.77,1.06,5,5,0,0,1-.77.61,3.69,3.69,0,0,0-.34.25,6.82,6.82,0,0,1-2.4,1.42,4.52,4.52,0,0,1-1.66.27,4.38,4.38,0,0,1-1-.1l-.12,0h0l-.06,0a.05.05,0,0,0,0,.05v.1a.19.19,0,0,1,0,.08,2,2,0,0,1-.38,1.1,1.62,1.62,0,0,1-1,.69,2.19,2.19,0,0,1-1.19,0,3.76,3.76,0,0,1-.58-.25l0,0a2.83,2.83,0,0,1-1-1l-.06-.1a.1.1,0,0,1-.09,0,.1.1,0,0,1,0-.12v0Zm.4-1.58a1.29,1.29,0,0,0,0,.75,11.6,11.6,0,0,1,1-1.72l-.43.33a1.79,1.79,0,0,0-.25.23.05.05,0,0,1,0,0A.84.84,0,0,0,32.93,22.34ZM34.4,21a.15.15,0,0,1,0,.11A10.5,10.5,0,0,0,33,23.46a2.39,2.39,0,0,0,.2.43l.14-.19a.07.07,0,0,1,.08,0,.13.13,0,0,1,.09,0,.13.13,0,0,1,0,.1.14.14,0,0,1,0,.1c0,.07-.11.14-.16.22a2.1,2.1,0,0,0,.55.52c.05-.09.09-.18.13-.26a.16.16,0,0,1,.08-.06,1.31,1.31,0,0,1-.49-.66,1.31,1.31,0,0,1,.26-1.32,2.67,2.67,0,0,1,.56-.5s0,0,.07-.05a.46.46,0,0,1,.48,0q.52-.95,1.11-1.83C35.53,20.28,35,20.63,34.4,21Zm1.91,3a1.24,1.24,0,0,0-.07-.83,1.17,1.17,0,0,0-.63-.61h0A8.27,8.27,0,0,0,35,23.7a.5.5,0,0,0,.21,0,.43.43,0,0,0,.27-.41v-.14a.13.13,0,0,1,.07-.1.17.17,0,0,1,.12,0,.53.53,0,0,1,.31.33.87.87,0,0,1,0,.67.9.9,0,0,1-.42.48,1.35,1.35,0,0,1-.59.11,1.6,1.6,0,0,1-.67-.18.08.08,0,0,1,0,.09l-.13.25a3,3,0,0,0,.32.12,1.64,1.64,0,0,0,.79.07.27.27,0,0,0,.06-.1.3.3,0,0,0,.06-.11.14.14,0,0,1,.11-.06.13.13,0,0,1,.11.06.1.1,0,0,1,0,.13,1.15,1.15,0,0,0,.58-.51A2,2,0,0,0,36.31,24Zm-1-1.51h-.21a.55.55,0,0,0-.25.1l0,0-.11.12a.78.78,0,0,0-.13.61.48.48,0,0,0,.14.25h0A7.92,7.92,0,0,1,35.3,22.46Zm1.19-2.63q-.68,1-1.29,2.1a5.35,5.35,0,0,0,.78.49l0,0a9.33,9.33,0,0,1,1.29-2.26L37,19.9l-.15-.13-.11-.09a.15.15,0,0,0-.13,0l0,0H36.5A.11.11,0,0,1,36.49,19.83Zm-1-2.08c.49-.79,1-1.55,1.53-2.31a.16.16,0,0,1,.12-.06c0-.13,0-.27,0-.4A7.38,7.38,0,0,1,37,13.93q0-.27.06-.57h.22l.48,0,.34,0a6.64,6.64,0,0,1,.81-1,6.76,6.76,0,0,0-2.11,1,4,4,0,0,0-1.31,1.66,3.51,3.51,0,0,0-.25.95,17.53,17.53,0,0,1,1.36-1.61.1.1,0,0,1,.12,0,.13.13,0,0,1,.09.09.13.13,0,0,1,0,.14,15.14,15.14,0,0,0-1.57,1.89,4.23,4.23,0,0,0,0,.48A3.77,3.77,0,0,0,35.49,17.75Zm.14.29a3.19,3.19,0,0,0,.26.42l0,.07,0,0a7.73,7.73,0,0,1,1.47-2.12h0a0,0,0,0,0,0,0,.1.1,0,0,0,0,0,5.25,5.25,0,0,1-.23-.74C36.65,16.42,36.13,17.22,35.63,18Zm2.3-.75a3.58,3.58,0,0,1-.36-.59,7.5,7.5,0,0,0-1.42,2.09,3.68,3.68,0,0,0,.4.39,6.81,6.81,0,0,1,1.22-1.77.11.11,0,0,1,.13,0,.2.2,0,0,1,.09.09.16.16,0,0,1,0,.14,6.18,6.18,0,0,0-1.19,1.74.13.13,0,0,0,.1,0l0,0L37,19.3l.42-.37.16-.14.39-.34c.42-.38.85-.75,1.27-1.11l0,0a.53.53,0,0,1,.2-.13,5.3,5.3,0,0,1,.65.28c.27-.36.54-.71.82-1.06l.8-1.08h0l0,0s0,0,0,0v0l0,0,0,0a1.37,1.37,0,0,1,.18-.16h.07l.1.06h0l.21.12.17.11h.07l0,0v0a2.23,2.23,0,0,0,0-.23l-.18-.87c0-.18-.07-.36-.1-.54-.24.38-.49.75-.74,1.12l.13.08h0a.05.05,0,0,1,0,0s0,0,0,0l0,0a.17.17,0,0,1-.06.06l-3,2.67-.14.09H38.4l-.07,0A2.52,2.52,0,0,1,37.93,17.29ZM37,22.84a18,18,0,0,1,1.27-2.12c-.26-.13-.52-.28-.78-.44a9.27,9.27,0,0,0-1.29,2.25h0s0,0,0,0h0A5.46,5.46,0,0,0,37,22.84Zm1.1.17c.39-.63.8-1.25,1.23-1.85a4.09,4.09,0,0,1-.49-.18l-.32-.14a18.08,18.08,0,0,0-1.27,2.06A4.82,4.82,0,0,0,38.12,23Zm-.48-8.81a7,7,0,0,0,0,.78,5.39,5.39,0,0,0,.24,1,3.21,3.21,0,0,0,.42.85h0l0,.05.07,0,0,0,.12-.1,1.76-1.57h0a1,1,0,0,0,.15-.14.09.09,0,0,0,0-.06v0l0,0-.06,0a9.44,9.44,0,0,0-2.12-.77,3.56,3.56,0,0,0-.47-.1l-.15,0s-.06,0-.07,0a.08.08,0,0,0,0,.07v.1Zm3.59,5.34a2,2,0,0,0-.39-.73,3.62,3.62,0,0,0-.41-.38,4.45,4.45,0,0,0-.8-.5h-.14a.27.27,0,0,0-.08.07l-1.66,1.44-.08.09a0,0,0,0,1,0,0,0,0,0,0,0,0,0s0,0,0,0a.05.05,0,0,0,0,0l.09.08a7.1,7.1,0,0,0,1.28.67,2.84,2.84,0,0,0,.49.17,5.94,5.94,0,0,0,1.32.15.17.17,0,0,1,.16,0h.37s0,0,.05,0l0,0v0a.49.49,0,0,0,0-.12A7.32,7.32,0,0,0,41.23,19.54Zm-1.78-7.25a6.58,6.58,0,0,0-1,1.19l.53.14.61-.81.44-.58A2.48,2.48,0,0,0,39.45,12.29ZM42,21.37v0h0a0,0,0,0,0,0,0h-.39l-.32,0a3.23,3.23,0,0,1-.44,0c-.16.26-.33.52-.48.78s-.17.27-.26.41a.12.12,0,0,1-.12.06.11.11,0,0,1-.1-.06.12.12,0,0,1,0-.14l.51-.82.14-.24-.43,0a3.58,3.58,0,0,1-.43-.08q-.63.87-1.2,1.8a4.46,4.46,0,0,0,1-.17,6.19,6.19,0,0,0,2.49-1.41l.05-.06Zm-1.65-9.16-.68.91c-.14.19-.28.39-.43.58l.59.21a17,17,0,0,1,1.13-1.64l-.19,0Zm1.34.24a2.23,2.23,0,0,0-.44-.13A18.12,18.12,0,0,0,40.05,14a4.84,4.84,0,0,1,.47.21A7.44,7.44,0,0,1,41.66,12.45ZM41,18.06l0,0h0A17.82,17.82,0,0,1,42.54,16c-.2-.17-.4-.34-.61-.5l-1.07,1.41c-.18.24-.36.48-.55.71A4.36,4.36,0,0,1,41,18.06Zm1.58-5.33a1.57,1.57,0,0,1-.63-.18,7.22,7.22,0,0,0-1.16,1.77l.5.26c.38-.57.75-1.15,1.12-1.73a.11.11,0,0,1,.12-.06.2.2,0,0,1,.11.06s0,.08,0,.14a.57.57,0,0,1-.08.13.22.22,0,0,1,0,.08,1,1,0,0,0,.77-.34,1.58,1.58,0,0,0,.22-.29.27.27,0,0,1,.06-.1l0,0h-.08l-.07,0,0,0A1.24,1.24,0,0,1,42.54,12.73Zm.7,4c-.13-.18-.26-.34-.4-.5l-.08-.08a.08.08,0,0,1,0,0,18.06,18.06,0,0,0-1.53,2.14,3.1,3.1,0,0,1,.48.7Zm.15.24-.8,1.13-.8,1.14,0,.14.06.2.12.45a12.55,12.55,0,0,1,1.75-2.28,4.23,4.23,0,0,0-.25-.62L43.4,17Zm.24,2.67a2.49,2.49,0,0,0,.19-1.59,12.3,12.3,0,0,0-1.74,2.36,2.85,2.85,0,0,1,.05.72s0,0,0,0,0,0,0,0h0a3.87,3.87,0,0,0,1.2-1.12A3.18,3.18,0,0,0,43.63,19.68Z"/><path d="M52.16,12.34a3.05,3.05,0,0,0,1.67.92,1.4,1.4,0,0,0,.35,0,.91.91,0,0,1,.23,0l.32,0h.17a.54.54,0,0,1,.32.16.49.49,0,0,1,.17.34.61.61,0,0,1-.19.53l-.15.13a4.54,4.54,0,0,1-.48.39l-.12.09,0,0L51.9,17.1a.08.08,0,0,0,0,0l-.07.05a.1.1,0,0,0,0,.08l0,0,0,.06.6.76.7.89c.22.27.37.45.44.52h0l.05,0s0,0,0,0,0,0,0,0a.59.59,0,0,1,.57-.22l.42.08a.56.56,0,0,1,.34.26.58.58,0,0,1,.09.26,1.53,1.53,0,0,1,0,.3c-.16.75-.32,1.51-.47,2.26-.1.47-.19.94-.29,1.41v.05a.84.84,0,0,0-.05.17.56.56,0,0,1-.42.42.58.58,0,0,1-.6-.17l-.12-.14s0,0,0,0l-2-2.49-1.56-2,0,0-.17-.21,0,0,0,0a3.79,3.79,0,0,0-.37.31l-.13.1a.71.71,0,0,0,0,.25v2.87a1.23,1.23,0,0,1,0,.19.57.57,0,0,1-.53.56H46.09a.6.6,0,0,1-.52-.55V10.62c0-.12,0-.23,0-.35a.92.92,0,0,0-.19-.52A.5.5,0,0,0,45,9.54a.54.54,0,0,1-.49-.34.57.57,0,0,1,0-.46A.64.64,0,0,1,45,8.36a2.21,2.21,0,0,1,.85,0,1.89,1.89,0,0,1,.75.37l0,0,0,0a.1.1,0,0,0,.13,0L47,8.68l.35-.32.32-.27L47.76,8a.62.62,0,0,1,.44-.13.58.58,0,0,1,.33.13.64.64,0,0,1,.2.38.52.52,0,0,1,0,.11v9a.1.1,0,0,1,0,0h0l.11-.05a.27.27,0,0,0,.08-.07l.06-.05,1.19-1,.32-.26h0l.13-.11a.06.06,0,0,0,0,0,.08.08,0,0,0,0,0l-.1-.06-.14-.07a4.25,4.25,0,0,1-1.22-1,1.31,1.31,0,0,1-.11-.12.61.61,0,0,1-.13-.43.6.6,0,0,1,.2-.41l.12-.09,0,0,.18-.15,1.54-1.27,0,0,.14-.11a.59.59,0,0,1,.75.06l.09.1ZM45.84,9.39a.27.27,0,0,1,.09-.12l.2-.1A1,1,0,0,0,45.79,9a1.4,1.4,0,0,0-.41-.06h0a.05.05,0,0,0,0,0V9h0A1.33,1.33,0,0,1,45.84,9.39Zm.33.93v.09c.64-.41,1.29-.8,2-1.15V8.52h-.07l0,0-.12.09-.64.55-.45.4h0l-.17.15h0l0,0a.09.09,0,0,0,0-.07l-.06-.15a1.28,1.28,0,0,0-.14-.21,1.4,1.4,0,0,1-.32.18h-.07a2.12,2.12,0,0,1,.11.21A1.69,1.69,0,0,1,46.17,10.32Zm0,1a11.33,11.33,0,0,1,2-1.06V9.55c-.68.36-1.33.74-2,1.16Zm2-.78a12.14,12.14,0,0,0-2,1.08v.74a11.52,11.52,0,0,1,2-1.1Zm0,4.62V11.55a12.74,12.74,0,0,0-2,1.13v.75c.57-.44,1.16-.86,1.78-1.25a.11.11,0,0,1,.12,0,.19.19,0,0,1,.07.12.12.12,0,0,1-.06.11c-.66.42-1.29.87-1.91,1.35v.68c.54-.39,1.08-.77,1.63-1.14a.15.15,0,0,1,.13,0,.15.15,0,0,1,.06.11.16.16,0,0,1-.06.12c-.6.39-1.18.8-1.76,1.23v.91q.84-.73,1.74-1.38c.05,0,.09,0,.13,0a.14.14,0,0,1,.06.1.13.13,0,0,1-.06.13A20.46,20.46,0,0,0,46.17,16v.63A17.4,17.4,0,0,1,48,15.19.09.09,0,0,1,48.14,15.18Zm6.08-1.28H54.1l-.24,0-.46-.1c-.8.53-1.61,1.05-2.43,1.54a.15.15,0,0,1-.13,0,.11.11,0,0,1-.06-.11.14.14,0,0,1,.06-.11c.76-.46,1.51-.93,2.24-1.42a3.36,3.36,0,0,1-.54-.26,4.18,4.18,0,0,1-1,.55q-.39.16-.75.36a2.1,2.1,0,0,0-.61.54,3.73,3.73,0,0,0,1.26.71s0,0,.07,0a3.87,3.87,0,0,0,1-.56l.28-.19.34-.22L54,14a.13.13,0,0,1,.12,0,.15.15,0,0,1,.06.11.11.11,0,0,1,0,.12l-1.35.88-.23.15a4,4,0,0,1-.75.44l.05,0,.1,0,0,0s0,0,0,0l-.14.13,0,0-2.92,2.37-.58.46h-.07l0,0v0a2.44,2.44,0,0,1,0-.27,12.36,12.36,0,0,0-1.77,1.44.14.14,0,0,1-.11,0,.15.15,0,0,1-.09-.06v.84c.67-.37,1.33-.77,2-1.19h0v0a.13.13,0,0,1,0-.07l.06-.06.86-.7h0l.07-.05.07-.07.08-.05h0q.41-.32.84-.6c.19-.13.39-.26.6-.38l.14-.07.09-.06h0s0,0,0,0l-.09-.12v0s0,0,0,0l.17-.17,3-2.48,0,0,.14-.11a1.42,1.42,0,0,0,.3-.25.39.39,0,0,1,.1-.08l0,0v-.06h0l-.39,0Zm-6.08,2.6V15.41a16.46,16.46,0,0,0-2,1.56v.78A14.56,14.56,0,0,1,48,16.42a.09.09,0,0,1,.11,0A.13.13,0,0,1,48.14,16.5Zm-2,1.49v.81a13,13,0,0,1,2-1.32v-.92a.1.1,0,0,1,0,.08A13.74,13.74,0,0,0,46.31,18,.11.11,0,0,1,46.17,18Zm2-.22a14.07,14.07,0,0,0-2,1.36v.61h0a14.19,14.19,0,0,1,2-1.59Zm0,2.47v-.41c-.64.42-1.3.82-2,1.19v.56A20.09,20.09,0,0,1,48.14,20.24Zm0,1.06v-.75a17.28,17.28,0,0,0-2,1.36v.75A16.8,16.8,0,0,1,48.14,21.3Zm0,.93V21.6a18.27,18.27,0,0,0-1.87,1.29.18.18,0,0,1-.09,0,.09.09,0,0,0,.08.05H47l0,0c.18-.12.36-.24.55-.35Zm0,.39v-.08l-.69.44H48c.08,0,.12,0,.12-.11Zm1.41-4,.22.28a2.35,2.35,0,0,1,.19.25A8.29,8.29,0,0,1,51.5,18l-.09-.12a3.25,3.25,0,0,0-.23-.29c-.18.1-.35.21-.52.32-.39.25-.76.51-1.13.78h0Zm.41-4a2.19,2.19,0,0,1,.63-.55,7,7,0,0,1,.73-.35,4.52,4.52,0,0,0,1-.54,6.11,6.11,0,0,1-.51-.41l-.07-.08,0,0,0,0a.09.09,0,0,0-.14,0,2,2,0,0,0-.27.22l0,0-.26.21-1.17,1,0,0a.33.33,0,0,0-.14.15l0,0,.06.07C49.79,14.52,49.88,14.61,50,14.7Zm1.86,3.64-.09-.1-.07-.1a7.74,7.74,0,0,0-1.53,1.25l.33.41.23.3a11.77,11.77,0,0,1,1.51-1.21h0L52,18.6Zm.56.72a.13.13,0,0,1-.05.06,10.58,10.58,0,0,0-1.49,1.18l.67.83c.13.17.25.33.38.48l.47-.44,1-.94L53.14,20a3.25,3.25,0,0,1-.23-.29A11,11,0,0,0,51.62,21a.1.1,0,0,1-.11,0,.13.13,0,0,1-.09-.09.15.15,0,0,1,0-.14,10.47,10.47,0,0,1,1.31-1.27l-.2-.25A1.84,1.84,0,0,0,52.38,19.06Zm1.28,1.6-.11-.12-.08-.1L52,21.81s0,0,0,.05l.36.44c.42-.53.86-1,1.32-1.52Zm.48.79c0-.11,0-.22.07-.34l.11-.54a19.53,19.53,0,0,0-1.71,1.92s0,0,0,0a2.56,2.56,0,0,0,.2.26A13.35,13.35,0,0,0,54,21.48.12.12,0,0,1,54.14,21.45Zm-.41,2c.07-.36.15-.74.22-1.11l.12-.54A15.47,15.47,0,0,1,52.94,23L53,23l.38.48.15.19c0,.05.07.06.09.05s0,0,0,0a.06.06,0,0,0,0,0l0-.09A1.24,1.24,0,0,1,53.73,23.45ZM54,20.28a2.46,2.46,0,0,0-.07.29v0l.07-.07.14-.15a.14.14,0,0,1,.12,0,.17.17,0,0,1,.09.08l0-.18a1.77,1.77,0,0,1,0-.2.53.53,0,0,0,0-.13.06.06,0,0,0,0,0h0l0,0-.14,0c-.06,0-.09,0-.11.07Z"/></svg>