<svg version="1" xmlns="http://www.w3.org/2000/svg" width="1365.333" height="1365.333" viewBox="0 0 1024.000000 1024.000000"><path d="M355.5 160.7c-23.8 2.4-35 4.4-58 10.3-25.9 6.6-53.1 16-69.9 24.3-38.8 19-65 48.3-73.1 81.7-.2.7-1.7 11.8-2.1 16-.6 4.3-.5 15.6 0 45.4.4 22.3.4 23 2.6 24.8 1.2 1 3.7 1.8 5.6 1.8 3 0 3.4.3 4 3.7 1 5.4 8.8 23.3 13.5 31.1 8.2 13.5 17 23.2 21.1 23.2 3.3 0 8.5-3.8 9.6-7 1.5-4.2.6-6.5-7-16.4-21.1-27.9-27-60.1-17.1-93.1 6.7-22.2 21.6-42.9 39.3-54.6 19.8-13.1 37.7-18.1 62-17.3 14.6.4 14.8.4 23 2.3 35.8 8.3 82.3 29.2 135.5 60.9 25.9 15.4 27.8 17 28.9 24.7.9 5.8 4.7 8.9 10.2 8.2 3.4-.3 6.1-1.9 13.1-7.3 4.8-3.8 10.4-8.1 12.3-9.6 1.9-1.4 13.4-10.4 25.5-19.8 12.1-9.5 23.1-17.8 24.5-18.5 2.6-1.4 6.1-5.6 7.3-8.9 1-2.5-.9-8.9-3.2-11-1-.9-3.7-1.8-6-1.9-3.6-.2-5.1-1.1-12.2-7.7-10.8-9.9-13.4-12.3-19.8-17.8-5.1-4.5-6.3-5.5-11.1-9.5-38.8-32.4-73.3-50.1-109.5-56.2-1.6-.3-4.3-.8-6-1.1-3.3-.6-38.1-1.2-43-.7zm22.5 19.1c0 .3-10.3 12.3-13.8 16-.7.8-2.5 3-4 5-1.5 2.1-3 3.9-3.3 4.2-.3.3-4 5.1-8.2 10.7l-7.7 10.2-5.3-1.8c-2.8-1-5.2-2.3-5.2-3 0-3.4 19.9-24.6 33.5-35.7 5.9-4.8 8.2-6.1 10.7-6 1.8.1 3.3.3 3.3.4zm-24 2.9c-6.5 5.2-20.5 19.7-27 28.1l-6.5 8.4-4.7-.6c-8.3-1.1-8.3-1.1-1.8-9 6.8-8.3 12.8-14 21.4-20.8 3.4-2.7 6.7-5.3 7.5-5.9 1.5-1.3 5.4-2.3 10.9-2.7l3.7-.2-3.5 2.7zm41.8-1.6c2.3.2 4.2.6 4.2 1 0 .3-8.6 11.1-19.1 23.9-10.5 12.8-19.6 24.1-20.1 25-1 1.6-1.4 1.6-5.7-.1-2.5-1-4.5-2.3-4.3-2.9.4-1.9 11.6-16.4 22.8-29.6 12-14.1 16.3-18.6 17.3-18 .4.3 2.6.6 4.9.7zm-77 10.7c-4 3.9-10.5 10.9-14.2 15.6-3.8 4.7-7.2 8.3-7.6 8.1-.3-.2-2.6-.5-4.9-.6-2.3-.2-4.4-.6-4.7-1-.5-.9 22.1-24.6 25-26.1 2.1-1.2 12.8-3.7 13.4-3.2.2.1-2.9 3.4-7 7.2zm96.6-6.7l3.9 1.1-4 4.1c-7.9 8.3-26.3 32.3-35.3 45.9-1.4 2.1-2.9 3.8-3.3 3.8-.4 0-2.6-.9-4.8-2.1-2.8-1.4-3.8-2.4-3.1-3.2 7.8-10 41.5-50.7 42-50.7.4 0 2.4.5 4.6 1.1zm20 6.4c3.4 1.4 3.6 1.8 2.4 3.4-.7 1-7.7 9.8-15.4 19.4-7.8 9.7-17 21.4-20.5 26l-6.3 8.5-4.8-2.4c-2.6-1.3-4.8-2.8-4.8-3.3 0-2.1 21.6-30.8 34.5-45.9 7.5-8.8 7.4-8.8 14.9-5.7zM294 192.6c0 .5-11.5 13.7-17.2 19.6-1.9 2.1-3.6 2.8-6.5 2.9-2.1 0-4.6.2-5.5.4-3 .6-2.1-1 4.3-7.1 7.5-7.2 7.5-7.2 12.3-10.8 4.7-3.5 12.6-6.7 12.6-5zm157.9 6.8c.8.6 2.6 1.6 4 2.3 2.4 1.1 2.4 1.1.4 1.2-1.6.1-7.1 6.6-21.8 26-10.8 14.2-20.1 26.4-20.5 27.1-.7 1.1-1.6 1-5-.5-2.2-1-4.3-2.2-4.6-2.7-.7-1 17.9-25.5 36.4-48 6.4-7.8 7.4-8.3 11.1-5.4zM262 202.8c0 .4-.8 1.4-1.7 2.3-1 .8-4.3 4.4-7.4 8-4.5 5-6.7 6.8-10.5 8-2.7.9-5.7 1.9-6.8 2.4-3.2 1.4-.2-2.8 7.4-10.3 4.7-4.8 8.6-7.5 12.2-9 6-2.3 6.8-2.5 6.8-1.4zm210.4 9.2c.4.5-4.2 7.3-10.3 15.3-10.9 14.3-28.1 39.3-28.1 40.9 0 .9-12.4-5.8-12.7-6.9-.2-.4 5.6-8.5 12.8-17.8 25.5-33.2 27.1-35.5 26.6-37.5-.4-1.6.5-1.3 5.2 1.6 3.1 2 6 4 6.5 4.4zM223 223.5c-2.2 3-4.5 6.5-5.1 7.7-.6 1.3-4.3 4.5-8.2 7.2l-7.1 4.9 3.1-4.3c6-8 10.8-13.3 15.6-17.2 2.7-2.1 5.1-3.8 5.3-3.8.3 0-1.4 2.5-3.6 5.5zm261.3-3.4c1.9 1.4 2.4 2.3 1.6 3.2-2.5 2.9-16.9 23.5-26.6 37.9-5.8 8.7-10.7 15.8-11 15.8-.4 0-4.7-2.3-7.2-3.8-1.6-.9 37.7-55.2 39.9-55.2.4 0 1.9.9 3.3 2.1zm14.2 11.2l3.9 3.3-6.6 8.6c-6.3 8.1-18.2 25.5-26.1 38-2 3.2-3.9 5.8-4.2 5.8-1 0-9.4-4.5-9.5-5.1 0-.8 24.6-37.2 31.5-46.4 3-4.1 5.9-7.5 6.3-7.5.5 0 2.6 1.5 4.7 3.3zm21.9 19c1.4 1 .6 2.2-6.2 9.2-10.2 10.6-16.8 18.1-26 29.2l-7.6 9.2-3.7-3-3.8-3 6.1-9.7c10-15.8 22.6-33.8 28.1-39.9l2-2.2 4.7 4.5c2.6 2.5 5.5 5 6.4 5.7zM187.5 259c-3.3 4.1-7.3 9.4-8.9 11.7-1.6 2.4-3 4.3-3.2 4.3-.9 0 6.5-14.5 10.3-20.3 4.3-6.5 4.6-6.7 6.2-5 1.7 1.7 1.4 2.2-4.4 9.3zm346.2 3.3l4.3 4.2-23.8 18.4c-13 10.2-24.3 18.9-25 19.4-.7.6-1.5.7-1.9.4-.8-.9 9.7-13.9 22.8-28.2 10.7-11.7 17.4-18.4 18.4-18.4.6 0 2.9 1.9 5.2 4.2zM602.2 273.8c-13.9 14-22.6 19.7-39.2 25.6-10.2 3.7-11 4.4-12 11.3-2 13.4-31.4 96.3-57.6 162.1-11.3 28.3-31.1 75.5-39.4 93.7-1.7 3.8-3.8 8.3-4.5 10-.7 1.6-4.1 9.1-7.5 16.5-3.4 7.4-7.3 16-8.7 19-3.6 7.7-20.3 42.4-20.7 42.8-.2.2-3-.1-6.2-.7-3.3-.5-8.4-1.3-11.4-1.6-3-.4-6.6-.8-8-1-1.4-.2-5.6-.7-9.5-1-3.8-.4-8.3-.9-10-1.1-13.2-1.6-47.8-2.2-61.5-1-22.7 1.9-46.7 7.9-63.6 15.7-21.7 10.1-44.7 31.3-56.2 51.8-3.7 6.7-9.7 20.9-10.6 25.2-.3 1.3-1.2 5.6-2 9.5-1.7 7.8-1.5 27.2.3 33.1.5 1.8.8 3.3.6 3.3-.2 0 .5 2.5 1.6 5.6 9.5 27.9 29.8 48 55.4 54.9 8.2 2.3 12.5 1.5 14.9-2.6 2.2-3.8 2.3-9.4.1-11.8-.9-1-3.7-2.4-6.3-3.1-2.6-.7-8.5-3-13.1-5.2-14.7-7-27.1-21.6-32.5-38.3-2-6.3-2.8-11.3-3.1-19.5-.2-5.3.1-6.9 1.8-8.7 1.2-1.3 2.1-3.8 2.1-5.9.2-3 .8-4.2 3.6-6.1 3.3-2.3 17.1-9.4 23.6-12 11.9-4.9 42.2-12.1 57.4-13.8 3-.3 7.1-.8 9-1 11.3-1.6 34-2.1 45.5-1 12.4 1.1 33.2 5.5 43.6 9.1 13.5 4.7 22.1 9 35.5 18 6.1 4.1 11.6 7.4 12.3 7.4.8 0 .7.7-.3 2.2-2 2.8-2 6.1-.1 9.8 1.9 3.6 4.3 5 8.8 5 2.9 0 4.5-.9 8.9-5.3 2.9-3 7-7.6 9.2-10.3 2.1-2.7 5.9-7.2 8.5-9.9 2.5-2.8 10-11.1 16.6-18.5 6.6-7.4 12.2-13.7 12.5-14 .3-.3 3.9-4.3 8-9s8.1-9.2 9-10.1c4.3-4.5 7.2-8.2 7.9-10.2 1-2.7.5-8.6-1-10.4-1.3-1.5-6.3-2.9-12.9-3.6-13-1.5-15.1-2-16.1-3.8-1.2-2.3-5.2-2.5-6.9-.4-.7.8-1.5 1.3-1.9 1.1-.3-.2-3.1-.7-6.1-1.1-3-.4-6.4-.9-7.5-1-1.1-.2-4.2-.6-7-1-2.7-.3-5.7-.8-6.5-1-.8-.2-3.7-.7-6.5-1-7.4-.9-8.4-1.1-9-1.6-.3-.3 2.6-7.1 6.4-15 9.3-19.6 23.9-51.2 26.6-57.9 1.9-4.5 2.9-5.7 5.6-6.6 3.2-1.1 27.6-5.5 37.9-6.9 2.5-.3 5.6-.8 7-1 4.6-.6 12.4-1.6 17.5-2 2.8-.3 6.1-.7 7.5-1 1.4-.2 7.5-.7 13.5-1.1 6.1-.3 11.3-.8 11.7-1 .3-.2 5.5-.7 11.5-.9l10.8-.6 13.7 18.3c17.4 23.3 29.4 41.3 34.3 51.4 3.8 7.9 8.5 19.7 8.5 21.3 0 .5-2.4 2.7-5.2 4.8-13.2 10-24.3 23.6-30.7 37.5-3.1 6.8-7 21.2-7.9 29.5-1 8.9.2 11.7 5.7 13.4 3.4 1 4.3.9 7.8-1.1 3.4-1.9 4.2-3 5.7-8 2.4-8.1 6.4-11.7 16.3-14.6 15-4.4 37.2-1.8 55.1 6.6 15.9 7.5 31.2 18.9 46.2 34.5 10.4 10.8 9.7 10 17.8 19.8 7.2 8.5 7.4 8.7 11.7 8.7 5 0 1 3 65.5-49.4 16.2-13.2 34.8-28.3 41.2-33.5 13.6-11 15.5-14 11.8-19.1-1.2-1.6-3.1-3.5-4.3-4.2-2.5-1.3-7.5-1.2-9.3.3-1.2 1-20.3.6-23.4-.5-.8-.3-2.7-.7-4.1-1-9-1.5-18.9-9.3-25.4-20.1-3.7-6.2-25.1-48.6-27.2-54-.6-1.7-4.6-10.2-8.8-19-9-18.7-28-60.3-35.5-77.5-1.8-4.1-4.4-10-5.7-13-1.4-3-3.3-7.3-4.3-9.5-13.5-30.7-43.6-93-58.7-121.5-15.2-28.5-20.9-38.4-32.8-56.5-9.3-14-13.3-21.3-19.8-35.7-3.8-8.2-5.6-9.8-11.2-9.8-3.2 0-4.6 1-14.3 10.8zm16.1 23.8l3.7 6.7-4.3 5.1c-7.3 8.6-18.1 23.5-25.1 34.8-3.6 5.9-6.6 11-6.6 11.2 0 .2-1.6 3.3-3.6 6.8-2 3.4-9.5 17.9-16.6 32.1-7.1 14.1-13.3 25.5-13.8 25.2-1.8-1.1-3-8.2-2.1-12.7 1.2-6.9 17.5-36.3 34.9-63.3 7.1-11 27.5-39.9 30.4-42.9 1.6-1.7 1.6-2.2.4-4-.7-1.2-2.3-2.2-3.5-2.4-1.8-.3-2-.6-1-1.8 2.1-2.5 3.5-1.5 7.2 5.2zm-14.6 3.6c-13.4 16.6-39.2 56.8-52.6 82-3.5 6.5-6.4 11.8-6.6 11.8-.2 0 2.5-8.4 6.1-18.8 3.6-10.3 9.2-26.8 12.5-36.7 3.3-9.9 6.4-18.9 7-20.1.6-1.2 3.6-3.1 6.7-4.4 5.2-2.1 22-11.5 23.2-12.9.6-.8 6.3-5 6.8-5.1.2 0-1.2 1.9-3.1 4.2zm25.9 15c1.6 3 1.6 3.1-2.8 7.7-2.4 2.5-5.6 6.2-7 8.2-3.7 5-10.9 19.5-15.8 31.9-8.1 20-24.9 55.8-32.5 69-2.1 3.6-4.5 7.8-5.4 9.4-.9 1.6-2.1 2.7-2.6 2.5-.6-.2-2.2-3.4-3.7-7.3l-2.7-6.9 10.4-21.1c9-18.3 22.1-43.2 29.4-56.1 7.9-13.9 28.7-41.9 30.3-40.9.5.3 1.5 1.9 2.4 3.6zm14.1 23c3.9 6.8 8 13.9 9 15.8 1.1 1.9 3.2 5.8 4.7 8.7l2.8 5.2-3.3 4c-1.9 2.2-4.1 4.3-4.9 4.6-1.2.4-33.8 56.9-52.6 91.4-11.3 20.6-15.8 28.1-16.4 27.4-.4-.4-1.7-3.3-2.9-6.4l-2.2-5.6 10.2-17.4c5.6-9.6 11-18.8 11.9-20.4 1-1.7 12.9-22.1 26.5-45.5 13.7-23.4 25.1-43.5 25.3-44.7.4-2.3-2.7-4.7-5.5-4.1-1.3.3-9.8 13.8-17.8 28.3-1.3 2.2-13.1 22.7-26.5 45.5-13.3 22.8-24.8 42.7-25.6 44.2-.8 1.6-1.8 2.8-2.2 2.8-.4 0-2.1-3.6-3.8-7.9l-3-7.9 6.4-10.8c7.2-12 18.9-35.1 25-48.9 2.2-5 7-15.5 10.7-23.5 3.6-8 7.5-16.5 8.6-19 4.6-10.3 8.3-16.7 12.7-22.2 2.6-3.2 5-5.8 5.3-5.8.3 0 3.7 5.5 7.6 12.2zm27.9 51.2l5.5 10.9-3 3.1c-1.6 1.7-4.9 7-7.4 11.7-6 11.6-22.3 38.6-42.5 70.6l-16.6 26.1-2.5-1.3c-1.5-.7-5.9-1.5-9.9-1.8-4.1-.3-7.6-.7-7.8-.9-.2-.2 2.6-5.5 6.1-11.7 3.6-6.2 6.5-11.5 6.5-11.7 0-.3 1-2.1 2.3-4.2 1.3-2 4-6.6 5.9-10.2 2-3.6 9.6-17.3 17-30.5 14-24.9 16.1-28.6 22.3-39.5 2-3.6 4.7-7.4 6-8.5 1.3-1.1 3.1-3.6 4.1-5.5.9-1.9 2.8-5 4.2-6.8 2.9-3.9 2.3-4.6 9.8 10.2zm17.4 35.8c0 .4-.9.8-1.9.8-2.7 0-7.6 4.4-9.2 8.2-.7 1.8-4 7.8-7.3 13.3-9 15.3-32.6 56.4-32.6 56.9 0 .3-1.5 3.1-3.4 6.3-1.9 3.2-8.4 15.2-14.5 26.8-6.1 11.5-11.2 20.7-11.2 20.2-.1-.4-.3-1.2-.4-1.7-.1-.6-.3-1.4-.4-2-.2-2-6.4-8-8.1-8-4.4 0-4-.8 8.6-19.9 1.6-2.4 3.4-5.1 3.9-6 .6-.9 2.8-4.3 4.9-7.6 19.3-29.6 48.8-78.1 55.5-91 7.3-14.2 7.7-14.3 12.3-4.9 2.1 4.3 3.8 8.1 3.8 8.6zM546.7 458c15.9 40.2 19.3 49.1 19.3 49.9 0 .4-6.4 1.1-14.2 1.4-7.9.4-15.6.9-17.3 1.1-5.4.7-13.9 1.6-20.1 2.1-6 .5-8.1.9-13.6 2.1-1.6.3-2.8.4-2.8.2s5.2-13.4 11.6-29.3c6.3-16 11.7-29.7 11.9-30.5.2-.8 2.7-7.4 5.5-14.5 2.7-7.2 5.3-13.7 5.6-14.5.6-1.6 3.7 5.6 14.1 32zm150.7-5.2c-1.6 2-3.2 4.1-3.6 4.7-5.4 6.7-24.5 35-33.9 50.2-7.3 11.7-20.9 36.2-28.8 52-4.5 9-8.3 16.3-8.6 16.3-.2 0-2-2.1-4-4.6l-3.5-4.7 8.1-15.6c4.5-8.6 9.4-17.9 10.9-20.6 1.5-2.8 4.7-8.6 7.1-13 5.1-9.5 20.6-36.9 31.1-55 4.1-7.2 9.2-16 11.2-19.8 2-3.7 4.3-6.7 5.1-6.7.8 0 2-.9 2.7-1.9 1-1.7 1.6-1 5.1 6.5l3.9 8.5-2.8 3.7zm17.9 28.9c3.1 6.8 5.2 12.3 4.7 12.3-1 0-4.3 5.1-41.5 64.5-13.1 20.9-25.8 41.1-28.2 44.9l-4.4 6.8-3-4.7-3-4.7 9.2-17.2c5.1-9.4 11-20 13.1-23.5 2.1-3.4 3.8-6.4 3.8-6.6 0-.8 27.5-47.1 34.8-58.5 8.4-13.1 9.9-15.6 10.5-17.2.7-1.9-2.1-4.8-4.6-4.8-1.7 0-5.9 5.2-10.2 12.5-1.1 1.9-6.5 10.7-12.1 19.7-9.5 15.3-20.4 33.8-27.2 46-9.3 16.5-15.1 27.2-18.7 34l-4 7.7-2.2-2.7c-4.1-5-4-5.5 6-25.6 16.8-33.7 35.6-64.6 57.6-94.9l8.6-11.8 2.6 5.8c1.5 3.2 5.2 11.3 8.2 18zm11.9 28.8c-.3.5-3.8 6-7.6 12.1-9.7 15-28 44.8-30.2 48.9-.6 1.1-4.6 8.3-9.1 16-7.9 13.9-14.4 25.8-20.1 36.7-3.2 6.3-3.5 6.3-6.7-.7-1-2.2-1.9-4.2-2-4.5-.2-.3 3.1-6 7.3-12.7 4.3-6.8 13.3-21.2 20.1-32 6.8-10.9 14.9-23.9 17.9-28.8 3.1-5 7-11.3 8.8-14 1.7-2.8 6.7-10.6 11-17.5l7.8-12.4 1.7 3.9c1 2.2 1.5 4.4 1.1 5zm13.1 26.6c6.3 14.1 7.5 17.4 6.3 18.3-.7.6-6.5 8.7-12.8 18.1-16.5 24.6-30.2 44.1-53.5 75.9-7.8 10.8-8.8 11.8-9.6 9.8-.7-1.6-.2-3.5 2.3-8.4 3.3-6.4 5.3-9.7 24.2-40.3 34.9-56.7 40.9-66.6 41.4-67.9.6-1.5-2.8-5.6-4.5-5.6-1.6 0-5.3 5.4-22.6 34-9.2 15.1-21.6 35.1-27.5 44.5-5.9 9.3-12.7 20.6-15.1 24.9l-4.3 8-1.3-3c-1.4-3.4-1.6-6.6-.4-7.9.4-.6 3.5-6.2 6.8-12.5 13.6-26 27.1-49.4 46.6-80.8 8.3-13.3 15.4-24.2 15.7-24.2.3 0 4 7.7 8.3 17.1zm-174.4-.2c-2.7 4.7-4.9 9.1-4.9 9.7 0 .6-1.9 1.2-4.2 1.3-2.4.1-5.5.3-7 .5-1.6.2-2.8.1-2.8-.1s3.2-4.8 7-10.2l7-9.8h4.9l4.8-.1-4.8 8.7zm29.8-8c.7.1-.3 2.6-2.5 5.9-7.4 11.4-6.8 11-15.6 11.8-6.5.5-7.7.4-7.1-.7.4-.8 3-5 5.7-9.5l5-8 6.7.2c3.6.2 7.2.3 7.8.3zM542.9 539c-3.8 5.5-7.4 10.2-7.8 10.4-1.3.8-10.1 1.8-10.1 1.1 0-1.7 7.4-10.5 8.8-10.5.5 0 2.8-2.5 5.1-5.5 3.6-4.8 4.6-5.5 7.6-5.5h3.5l-7.1 10zm-12.7-8.3c-1.1.4-15 17.4-16.9 20.7-.5.7-2.5 1.6-4.6 1.9l-3.8.6 2.8-3.8c1.5-2.1 5-6.3 7.8-9.4 2.7-3.2 5-6.5 5-7.4 0-1.4 1.1-1.9 4.5-2.4 6-.8 6.7-.8 5.2-.2zm-19.2 1.9c0 .2-.8 1.1-1.9 2.1-3.1 3-15.1 18.3-15.1 19.3s-4.9 2.4-11.2 3.3l-3.6.5 2.4-5.6c1.3-3.1 2.9-6.5 3.4-7.4.6-1 1-2.4 1-3.1 0-1 1.5-1.3 5.1-1.3 4.4.1 5.4-.3 7.8-3 1.5-1.6 4.3-3.5 6.2-4 3.4-1 5.9-1.3 5.9-.8zm245.5 40c2.5 5.3 4.5 9.8 4.5 9.9 0 .3 7.2 15.9 11.3 24.2 2.2 4.7 2.3 5.2.6 4.2-1.1-.5-2.6-.6-3.3-.2-3.2 1.8-22.7 25.5-35.2 42.8-8.7 12-22.3 32.4-25.9 39-.6 1.1-2.6 4.6-4.4 7.7l-3.2 5.7-5.2-2.1c-2.9-1.1-6.7-2.5-8.4-3.1-1.8-.6-3.3-1.4-3.3-1.8 0-.4 8.4-11.5 18.7-24.6 10.3-13.1 28.5-36.5 40.4-52 22.6-29.3 23.4-30.9 18.7-33.4-1.6-.9-2.4-.7-3.8.7-1 1.1-14.1 17.6-29.1 36.9-15 19.2-33.1 42.4-40.2 51.5-7.1 9.1-13.2 17.1-13.6 17.8-.6 1-2.9 1.1-10 .6l-9.2-.7 1.9-2.1c9.5-10.5 57-76.2 82.6-114.4 6.1-8.9 11.1-16.2 11.3-16.2.1 0 2.3 4.3 4.8 9.6zm24.8 52.6c3 6.2 7.3 15.1 9.5 19.8 3.9 8.3 4 8.5 1.9 8.8-2.3.4-5.4 4-16.8 19.8-10.9 14.9-22.2 32.1-29.5 44.9-3.7 6.6-6.9 12.2-7.1 12.4-.2.4-9.5-6.9-10.5-8.4-.4-.5-.1-2 .7-3.2.8-1.2 2.4-3.9 3.6-6 9.6-17.2 25.9-42.5 40.1-62 8.7-12.1 10.2-15.5 7.2-16.7-3.9-1.5-5.4-.4-13.2 10.1-10.7 14.6-33.2 48.4-33.2 49.9 0 .3-1.5 2.8-3.3 5.7-1.8 2.9-4.6 7.8-6.2 10.9-1.7 3.2-3.3 5.8-3.7 5.8-1.1 0-11.8-7-11.8-7.6 0-2 23.7-39.2 33.3-52.4 6.3-8.6 18.4-23.7 25.9-32.4 3.7-4.3 6.8-8.5 6.8-9.2 0-.8.2-1.4.3-1.4.2 0 2.9 5.1 6 11.2zm22.7 47.3c0 .6-2.2 4-4.8 7.5-13.2 17.6-26.6 37.6-38.4 57.2-2.9 4.9-5.6 8.8-6 8.8-.3 0-2.7-2.1-5.2-4.7-4-4-4.4-4.9-3.2-6.2.7-.9 3.5-5.4 6.2-10.1 2.6-4.7 6.9-11.8 9.6-15.9 2.6-4.1 4.8-7.6 4.8-7.8 0-.4 20.5-29.6 22.2-31.8.5-.6 2.5-3.2 4.5-5.8l3.6-4.8 3.4 6.3c1.8 3.4 3.3 6.7 3.3 7.3zm-481.4.2c-2.4 3.2-6.9 10.4-10.1 16l-5.8 10.3-5.1.1c-2.8 0-7.1.3-9.5.6l-4.4.5 3.3-5.8c4.3-7.6 10.2-15.6 16.3-22.2l5-5.2H327l-4.4 5.7zm23.3-3.8c-.8 1-5.3 7.2-10 13.7-4.7 6.6-9.1 12.9-9.8 14.1-.9 1.7-2 2.2-5.1 2.1h-4l2.7-5.2c3.7-6.9 9.8-16.1 14.6-21.9 3.6-4.3 4.2-4.7 8.4-4.7 4.3 0 4.5.1 3.2 1.9zm-49.9 3.3c-3.4 3.6-11.4 15.7-14.8 22.5-1.8 3.4-4 6.4-4.9 6.7-1.6.4-12.5 1.9-13 1.8-.2 0-1.6.3-3.3.8-1.6.5-3 .7-3 .4 0-1.2 10.3-16.2 16.5-24l7.3-9 7.3-1.3c4.1-.7 7.9-1.4 8.4-1.6 1.9-.4 1.6 1.4-.5 3.7zm77.6-2.4c.7.4-3.6 6.7-10.9 16l-11.9 15.4-6.2-.7c-5.2-.6-8.2-1.1-9.4-1.4-.6-.2 5.7-9.4 13.6-19.9l8.5-11.4 7.6.7c4.2.4 8.1 1 8.7 1.3zm283.8 10.4c-12.1 15.8-12.5 16.1-19.3 17.4l-6 1 1.7-3c3-5.2 16.5-17.9 23.7-22.3 3.8-2.3 7.1-4 7.3-3.8.2.2-3.1 5-7.4 10.7zm-262.6-8.1c3.5.6 6 1.4 5.5 1.8-3.2 2.2-18.5 23.9-21.4 30.4-1 2.2-1.8 2.7-3.3 2.3-1.2-.4-5.1-1.3-8.7-2.2l-6.7-1.7 9.1-11.6c17.9-23 14.9-20.8 25.5-19zm23.5 4.6c2.9.9 5.4 1.7 5.6 1.9.3.3-8.5 12.1-10 13.4-.3.3-4.1 5.2-8.4 11-4.3 5.8-8 10.7-8.1 10.9-.4.5-9.6-2.9-10.7-3.9-2.3-2 21.3-35 25-35 .8 0 3.8.7 6.6 1.7zm-153.9.5c-.5.7-3.6 5.3-6.9 10.3-3.4 4.9-7.4 11.4-9 14.2-1.5 2.9-3.1 5.3-3.4 5.4-2.2.3-5.1 1-11.3 2.9-3.8 1.2-7.1 2-7.3 1.8-.1-.2 4-5.3 9.2-11.3 5.3-6.1 11.1-12.8 13-15 4-4.6 17.9-12 15.7-8.3zm176 2.7l2.9.6-4.4 4c-9.1 8.4-14.9 16.3-20.8 28.2-3.6 7.2-3.9 9.9-1.1 10.8 3.7 1.2 5.6-.5 9.4-8.3 7-14.6 24-32.6 31.1-32.8 1.8-.1 3.8.2 4.4.5.5.4-3.9 6.8-10.1 14.6-6 7.7-14.2 18.2-18 23.2-3.9 5.1-7.4 9.3-7.9 9.3-.4 0-2.7-1.3-5.1-2.9-2.4-1.5-6.7-4.1-9.7-5.7-2.9-1.6-5.4-3.2-5.5-3.5-.3-1.5 29-38.8 30.4-38.7.8 0 2.8.3 4.4.7zm354.4 46.5c-13.9 19.5-25.5 35.5-25.8 35.6-.3 0-2.2-2-4.3-4.4l-3.7-4.5 6.8-11.3c6.9-11.3 20.1-31.9 21.1-32.8.4-.3 2.2-2.8 4.1-5.5 1.8-2.8 6.5-9.1 10.2-14.2l6.8-9.1 5.1 5.3 5.1 5.4-25.4 35.5zm-314.4-41c5.2.6 6.7 1.3 5.1 2.4-.6.4-6.2 6.5-12.5 13.7-6.3 7.1-11.9 13.5-12.5 14.1-.5.6-3.7 4.1-7 7.9-3.3 3.7-6.4 7.3-7 7.9-.5.6-2.6 3-4.7 5.3l-3.6 4.1-2.6-2.7-2.5-2.6 20.1-25.7c11-14.1 20.6-25.5 21.2-25.3.6.2 3.3.6 6 .9zm353.1 11.5c2.8 1 7.1 2.2 9.8 2.6 5.1.8 5.7 1.4 3 3.1-1.5.9-20.8 16.6-28.8 23.3-1.1.9-5.4 4.3-9.5 7.6s-7.7 6.2-8 6.5c-.3.3-2.5 2.1-5 4-3.4 2.6-4.1 2.9-3 1.3 5.5-8.2 35.6-50.2 36-50.3.3 0 2.8.9 5.5 1.9zm-611.6 6.8c-1.8 2.1-3.7 4-4 4.3-1.4 1.2-3 5.3-2.6 6.4.3.8-1.2 2.1-3.9 3.3-2.4 1.1-4.4 1.9-4.4 1.7 0-.6 9.6-12.2 13-15.7 4.7-4.7 6.3-4.7 1.9 0z"/></svg>